<?xml version="1.0" encoding="iso-8859-1"?>
<!-- Generator: Adobe Illustrator 19.1.0, SVG Export Plug-In . SVG Version: 6.00 Build 0)  -->
<svg version="1.1" id="Capa_1" xmlns="http://www.w3.org/2000/svg" xmlns:xlink="http://www.w3.org/1999/xlink" x="0px" y="0px"
	 height="64px" width="64px" viewBox="0 0 159.705 159.705" style="enable-background:new 0 0 159.705 159.705;" xml:space="preserve">
<g>
	<circle style="fill:#A3DCE2;" fill-opacity="0"  cx="79.853" cy="79.852" r="79.853" />
	<g>
		<path style="fill:#F0F0F0;" d="M120.438,67.047c-1.53-14.711-13.965-26.182-29.081-26.182c-2.813,0-5.531,0.406-8.106,1.148
				c11.244,3.251,19.699,13.07,20.943,25.033c6.231,2.43,10.649,8.23,10.649,15.322c0,9.233-7.486,16.463-16.719,16.463
				c9.243,0,16.033,0,16.241,0c9.233,0,16.719-7.229,16.719-16.463C131.085,75.277,126.667,69.477,120.438,67.047z"/>
		<path style="fill:#FFFFFF;" d="M114.844,82.369c0-7.092-4.418-13.021-10.649-15.451c-1.244-11.962-9.699-21.717-20.943-24.969
			c-5.203,1.5-9.813,4.434-13.389,8.309c-2.148-0.838-4.483-1.287-6.928-1.287c-9.83,0-17.919,7.438-18.971,16.986
			c-8.589,0.7-15.344,7.637-15.344,16.408c0,9.232,7.485,16.467,16.719,16.467c0.456,0,32.523,0,52.786,0
			C107.357,98.832,114.844,91.603,114.844,82.369z"/>
		<g id="group-24svg" transform="translate(50 65)">
			<path id="path-8_9_" d="M40.374,61.709c-3.649,0-7.719-1.156-12.066-4.27C13.811,47.059,3.971,56.844,3.559,57.265    c-0.577,0.591-1.525,0.605-2.119,0.029c-0.593-0.575-0.61-1.521-0.037-2.116C1.521,55.056,13.406,43.076,30.054,55    c14.366,10.286,24.99-4.067,25.436-4.684c0.484-0.671,1.423-0.822,2.093-0.339c0.672,0.484,0.825,1.419,0.341,2.092    C57.832,52.2,50.838,61.708,40.374,61.709z" fill="#FFFFFF"  />
			<path id="path-9_9_" d="M40.374,53.174c-3.649,0-7.719-1.155-12.066-4.269C13.811,38.522,3.971,48.309,3.559,48.729    c-0.577,0.592-1.525,0.606-2.119,0.03c-0.593-0.575-0.61-1.521-0.037-2.115c0.118-0.123,12.003-12.103,28.651-0.179    c14.366,10.286,24.99-4.068,25.436-4.684c0.484-0.67,1.423-0.822,2.093-0.339c0.672,0.484,0.825,1.419,0.341,2.091    C57.832,43.665,50.838,53.174,40.374,53.174z" fill="#FFFFFF"/>
		</g>
	</g>
</g>
<g>
</g>
<g>
</g>
<g>
</g>
<g>
</g>
<g>
</g>
<g>
</g>
<g>
</g>
<g>
</g>
<g>
</g>
<g>
</g>
<g>
</g>
<g>
</g>
<g>
</g>
<g>
</g>
<g>
</g>
</svg>
