<?xml version="1.0" encoding="iso-8859-1"?>
<!-- Generator: Adobe Illustrator 19.0.0, SVG Export Plug-In . SVG Version: 6.00 Build 0)  -->
<svg version="1.1" id="Layer_1" xmlns="http://www.w3.org/2000/svg" xmlns:xlink="http://www.w3.org/1999/xlink" x="0px" y="0px"
	 height="24px" width="24px" viewBox="0 0 471 471" style="enable-background:new 0 0 471 471;" xml:space="preserve">
<g transform="translate(0 -540.36)">
	<g>
		<g>
			<path d="M302.317,699.16h35.3c5.5,0,10-4.5,10-10s-4.5-10-10-10h-35.3c-5.5,0-10,4.5-10,10S296.817,699.16,302.317,699.16z"/>
			<path d="M203.517,875.76v-220.5c0-5.5-4.5-10-10-10s-10,4.5-10,10v220.5c-20.6,4.6-36,23-36,44.9c0,25.4,20.6,46,46,46
				c25.4,0,46-20.6,46-46C239.517,898.76,224.117,880.36,203.517,875.76z M193.517,946.66c-14.3,0-26-11.7-26-26s11.7-26,26-26
				c14.3,0,26,11.7,26,26C219.517,935.06,207.817,946.66,193.517,946.66z"/>
			<path d="M251.717,846.26v-249.9c0-30.9-25.9-56-57.9-56c-32.5,0-58.9,25.1-58.9,56v249.9c-31.1,24.3-43.6,64.2-31.2,101
				c6,18.7,17.8,34.7,34.1,46.3c16.3,11.6,35.6,17.8,55.9,17.8c19.8,0,38.9-6.2,55.3-17.8c16.2-11.6,28.2-27.6,34.7-46.2
				c0-0.1,0.1-0.2,0.1-0.3C295.417,910.16,282.517,870.26,251.717,846.26z M264.717,941.06c-10.4,29.7-39.6,50.4-71,50.4
				c-32.8,0-61.3-20.2-71-50.3c-0.1-0.1-0.1-0.1-0.1-0.2c-10.2-30,1-62.7,27.9-81.4c2.7-1.9,4.3-4.9,4.3-8.2v-255
				c0-19.9,17.5-36,38.9-36c20.6,0,38,16.5,37.9,36v255c0,3.3,1.6,6.3,4.3,8.2C262.517,878.16,274.117,910.86,264.717,941.06z"/>
			<polygon points="193.717,1011.36 193.717,1011.36 193.717,1011.36 			"/>
			<path d="M362.017,817.86h-59.7c-5.5,0-10,4.5-10,10s4.5,10,10,10h59.7c5.5,0,10-4.4,10-10
				C372.017,822.36,367.517,817.86,362.017,817.86z"/>
			<path d="M362.017,633.16h-59.7c-5.5,0-10,4.5-10,10s4.5,10,10,10h59.7c5.5,0,10-4.5,10-10S367.517,633.16,362.017,633.16z"/>
			<path d="M302.317,607.16h35.3c5.5,0,10-4.4,10-10c0-5.5-4.5-10-10-10h-35.3c-5.5,0-10,4.5-10,10S296.817,607.16,302.317,607.16z"
				/>
			<path d="M302.317,560.36h59.7c5.5,0,10-4.5,10-10s-4.5-10-10-10h-59.7c-5.5,0-10,4.5-10,10S296.817,560.36,302.317,560.36z"/>
			<path d="M302.317,791.96h35.3c5.5,0,10-4.5,10-10s-4.5-10-10-10h-35.3c-5.5,0-10,4.5-10,10S296.817,791.96,302.317,791.96z"/>
			<path d="M362.017,725.96h-59.7c-5.5,0-10,4.5-10,10s4.5,10,10,10h59.7c5.5,0,10-4.5,10-10S367.517,725.96,362.017,725.96z"/>
		</g>
	</g>
</g>
<g>
</g>
<g>
</g>
<g>
</g>
<g>
</g>
<g>
</g>
<g>
</g>
<g>
</g>
<g>
</g>
<g>
</g>
<g>
</g>
<g>
</g>
<g>
</g>
<g>
</g>
<g>
</g>
<g>
</g>
</svg>
