<?xml version="1.0" encoding="iso-8859-1"?>
<!-- Generator: Adobe Illustrator 16.0.0, SVG Export Plug-In . SVG Version: 6.00 Build 0)  -->
<!DOCTYPE svg PUBLIC "-//W3C//DTD SVG 1.1//EN" "http://www.w3.org/Graphics/SVG/1.1/DTD/svg11.dtd">
<svg version="1.1" id="Capa_1" xmlns="http://www.w3.org/2000/svg" xmlns:xlink="http://www.w3.org/1999/xlink" x="0px" y="0px"
	 width="256px" height="256px" viewBox="0 0 159.705 159.705" style="enable-background:new 0 0 425.037 425.037;"
	 xml:space="preserve">
<g>
	<circle style="fill:#A3DCE2;" cx="79.853" cy="79.852" r="79.853" />
	<g>
		<g transform="translate(0 -25)">
			<path style="fill:#F0F0F0;" d="M120.438,67.047c-1.53-14.711-13.965-26.182-29.081-26.182c-2.813,0-5.531,0.406-8.106,1.148
					c11.244,3.251,19.699,13.07,20.943,25.033c6.231,2.43,10.649,8.23,10.649,15.322c0,9.233-7.486,16.463-16.719,16.463
					c9.243,0,16.033,0,16.241,0c9.233,0,16.719-7.229,16.719-16.463C131.085,75.277,126.667,69.477,120.438,67.047z"/>
			<path style="fill:#FFFFFF;" d="M114.844,82.369c0-7.092-4.418-13.021-10.649-15.451c-1.244-11.962-9.699-21.717-20.943-24.969
				c-5.203,1.5-9.813,4.434-13.389,8.309c-2.148-0.838-4.483-1.287-6.928-1.287c-9.83,0-17.919,7.438-18.971,16.986
				c-8.589,0.7-15.344,7.637-15.344,16.408c0,9.232,7.485,16.467,16.719,16.467c0.456,0,32.523,0,52.786,0
				C107.357,98.832,114.844,91.603,114.844,82.369z"/>
			</g>
		<g id="group-24svg" transform="translate(-233 -240)">
			<path style="fill:#FFFFFF;" d="M315.005,330.851c2.899,0,5.266,0.848,7.1,2.544c1.833,1.701,2.757,3.783,2.757,6.251c0,1.265-0.3,2.442-0.898,3.515
				c-0.6,1.081-1.346,2.071-2.22,2.95c-0.878,0.873-2.311,2.168-4.28,3.899c-2.255,1.976-4.047,3.692-5.372,5.119
				c-1.331,1.437-2.397,3.107-3.194,5.001c-0.808,1.895-1.198,4.134-1.198,6.729c0,2.072,0.543,3.631,1.64,4.677
				c1.103,1.052,2.448,1.574,4.053,1.574c3.092,0,4.926-1.604,5.509-4.813c0.341-1.508,0.59-2.56,0.768-3.158
				c0.162-0.6,0.406-1.199,0.716-1.798c0.31-0.604,0.782-1.265,1.417-1.996c0.629-0.721,1.478-1.569,2.519-2.523
				c3.793-3.397,6.424-5.799,7.891-7.236c1.468-1.442,2.732-3.148,3.794-5.118c1.066-1.976,1.594-4.276,1.594-6.901
				c0-3.331-0.934-6.413-2.798-9.257c-1.863-2.834-4.509-5.078-7.937-6.733c-3.428-1.65-7.379-2.479-11.852-2.479
				c-4.81,0-9.029,0.985-12.64,2.961s-6.357,4.474-8.241,7.484c-1.879,3.012-2.818,5.972-2.818,8.902
				c0,1.422,0.594,2.747,1.787,3.966c1.184,1.219,2.646,1.822,4.372,1.822c2.936,0,4.926-1.741,5.977-5.225
				c1.112-3.336,2.463-5.85,4.073-7.562C309.11,331.714,311.614,330.851,315.005,330.851z"/>
			<path style="fill:#FFFFFF;" d="M318.708,389.313c1.392-1.234,2.087-2.936,2.087-5.099c0-1.939-0.665-3.574-1.99-4.905
				c-1.325-1.325-2.961-1.99-4.905-1.99c-1.976,0-3.642,0.665-5.002,1.99c-1.361,1.331-2.036,2.966-2.036,4.905
				c0,2.188,0.7,3.905,2.107,5.129c1.406,1.224,3.052,1.818,4.931,1.818C315.716,391.167,317.321,390.548,318.708,389.313z"/>
		</g>
	</g>
</g>
<g>
</g>
<g>
</g>
<g>
</g>
<g>
</g>
<g>
</g>
<g>
</g>
<g>
</g>
<g>
</g>
<g>
</g>
<g>
</g>
<g>
</g>
<g>
</g>
<g>
</g>
<g>
</g>
<g>
</g>
</svg>
